USFL
nRows=266
nColumns=2
inDegrees=yes
endheader
time	tib_ant_r	
3.19355	 51.189668	
3.22681	 51.200043	
3.26008	 51.170018	
3.29335	 51.194067	
3.32661	 51.192354	
3.35988	 51.172444	
3.39315	 51.191107	
3.42641	 51.166449	
3.45968	 51.160636	
3.49294	 51.140789	
3.52621	 51.140159	
3.55948	 51.177459	
3.59274	 51.177488	
3.62601	 51.189884	
3.65927	 51.164403	
3.69254	 51.156164	
3.72581	 51.158534	
3.75907	 51.162507	
3.79234	 51.175977	
3.8256	 51.158269	
3.85887	 51.170823	
3.89214	 51.182395	
3.9254	 51.194871	
3.95867	 51.195761	
3.99194	 51.204716	
4.0252	 51.208539	
4.05847	 51.203444	
4.09173	 51.253240	
4.125	 51.213339	
4.15827	 51.153874	
4.19153	 51.121439	
4.2248	 51.173955	
4.25806	 51.223184	
4.29133	 51.179189	
4.3246	 51.139001	
4.35786	 51.101807	
4.39113	 51.122984	
4.4244	 51.156802	
4.45766	 51.209390	
4.49093	 51.228649	
4.52419	 51.257956	
4.55746	 51.298273	
4.59073	 51.313085	
4.62399	 51.274274	
4.65726	 51.285277	
4.69052	 51.278918	
4.72379	 51.280119	
4.75706	 51.303002	
4.79032	 51.331133	
4.82359	 51.305659	
4.85685	 51.307204	
4.89012	 51.298825	
4.92339	 51.330966	
4.95665	 51.319903	
4.98992	 51.289195	
5.02319	 51.316328	
5.05645	 51.273407	
5.08972	 51.259628	
5.12298	 51.242594	
5.15625	 51.194955	
5.18952	 51.189604	
5.22278	 51.187779	
5.25605	 51.193388	
5.28931	 51.228527	
5.32258	 51.244012	
5.35585	 51.268340	
5.38911	 51.253278	
5.42238	 51.250823	
5.45565	 51.243108	
5.48891	 51.257515	
5.52218	 51.223785	
5.55544	 51.240720	
5.58871	 51.230365	
5.62198	 51.235481	
5.65524	 51.245655	
5.68851	 51.271923	
5.72177	 51.271820	
5.75504	 51.268314	
5.78831	 51.270098	
5.82157	 51.253905	
5.85484	 51.238513	
5.8881	 51.229720	
5.92137	 51.220178	
5.95464	 51.235174	
5.9879	 51.234923	
6.02117	 51.223283	
6.05444	 51.183649	
6.0877	 51.100706	
6.12097	 51.081703	
6.15423	 51.078126	
6.1875	 51.038905	
6.22077	 51.038228	
6.25403	 51.047864	
6.2873	 51.011477	
6.32056	 50.535407	
6.35383	 50.250760	
6.3871	 49.588733	
6.42036	 49.586438	
6.45363	 49.918031	
6.4869	 49.839356	
6.52016	 49.688725	
6.55343	 49.742876	
6.58669	 49.912350	
6.61996	 41.435924	
6.65323	 41.188789	
6.68649	 41.118348	
6.71976	 40.867532	
6.75302	 40.680851	
6.78629	 40.516116	
6.81956	 40.464025	
6.85282	 40.378266	
6.88609	 40.200101	
6.91935	 40.116080	
6.95262	 40.035269	
6.98589	 40.043852	
7.01915	 39.871447	
7.05242	 39.801723	
7.08569	 39.669775	
7.11895	 39.523394	
7.15222	 39.267266	
7.18548	 39.110270	
7.21875	 39.064638	
7.25202	 38.942858	
7.28528	 38.718719	
7.31855	 38.572914	
7.35181	 38.478802	
7.38508	 38.328135	
7.41835	 38.212457	
7.45161	 37.963248	
7.48488	 37.761404	
7.51815	 37.495131	
7.55141	 37.323566	
7.58468	 37.200261	
7.61794	 37.049582	
7.65121	 37.092689	
7.68448	 37.136742	
7.71774	 37.228493	
7.75101	 37.246899	
7.78427	 37.308328	
7.81754	 37.342236	
7.85081	 37.417285	
7.88407	 37.476567	
7.91734	 37.389491	
7.9506	 37.424145	
7.98387	 37.405397	
8.01714	 37.540905	
8.0504	 37.560274	
8.08367	 37.446531	
8.11694	 37.287725	
8.1502	 37.314805	
8.18347	 37.350253	
8.21673	 37.345426	
8.25	 37.416748	
8.28327	 37.501260	
8.31653	 37.496710	
8.3498	 37.672655	
8.38306	 37.621992	
8.41633	 37.506455	
8.4496	 37.418798	
8.48286	 37.290159	
8.51613	 37.239336	
8.5494	 37.183259	
8.58266	 37.121698	
8.61593	 37.149230	
8.64919	 37.174801	
8.68246	 37.163154	
8.71573	 37.153179	
8.74899	 37.103565	
8.78226	 37.091807	
8.81552	 37.028245	
8.84879	 36.975468	
8.88206	 36.943502	
8.91532	 36.984462	
8.94859	 36.975699	
8.98185	 37.020394	
9.01512	 37.065774	
9.04839	 37.064158	
9.08165	 37.001904	
9.11492	 37.061775	
9.14819	 37.080692	
9.18145	 37.139556	
9.21472	 37.158332	
9.24798	 37.240812	
9.28125	 37.241355	
9.31452	 37.373121	
9.34778	 37.410788	
9.38105	 37.419154	
9.41431	 37.435155	
9.44758	 37.439070	
9.48085	 37.419762	
9.51411	 37.468777	
9.54738	 37.483313	
9.58065	 37.509691	
9.61391	 37.536084	
9.64718	 37.635347	
9.68044	 37.680339	
9.71371	 37.710825	
9.74698	 37.742746	
9.78024	 37.824463	
9.81351	 37.883438	
9.84677	 37.892590	
9.88004	 37.937332	
9.91331	 37.985014	
9.94657	 38.015216	
9.97984	 38.057700	
10.0131	 38.114994	
10.0464	 37.986533	
10.0796	 38.059648	
10.1129	 38.071971	
10.1462	 38.125592	
10.1794	 38.135375	
10.2127	 38.151313	
10.246	 38.227029	
10.2792	 38.192362	
10.3125	 38.234026	
10.3458	 38.236137	
10.379	 38.074317	
10.4123	 38.229151	
10.4456	 38.235110	
10.4788	 38.231683	
10.5121	 38.266851	
10.5454	 38.305860	
10.5786	 38.321233	
10.6119	 38.304994	
10.6452	 38.283625	
10.6784	 38.323600	
10.7117	 38.356227	
10.745	 38.363539	
10.7782	 38.409116	
10.8115	 38.416226	
10.8448	 38.419182	
10.878	 38.403857	
10.9113	 38.393712	
10.9446	 38.398251	
10.9778	 38.393093	
11.0111	 38.386129	
11.0444	 38.407566	
11.0776	 38.399342	
11.1109	 38.410106	
11.1442	 38.370719	
11.1774	 38.404456	
11.2107	 38.401810	
11.244	 38.347024	
11.2772	 38.347461	
11.3105	 38.349898	
11.3437	 38.335638	
11.377	 38.389050	
11.4103	 38.462357	
11.4435	 38.708733	
11.4768	 39.090454	
11.5101	 38.935190	
11.5433	 39.153239	
11.5766	 39.309062	
11.6099	 39.932719	
11.6431	 40.675474	
11.6764	 41.434449	
11.7097	 41.649682	
11.7429	 41.986104	
11.7762	 42.137545	
11.8095	 42.309646	
11.8427	 41.826175	
11.876	 41.838671	
11.9093	 42.029622	
11.9425	 42.156967	
11.9758	 42.047211	
12.0091	 41.900124	
